<svg xmlns="http://www.w3.org/2000/svg" viewBox="0 0 1024 1024"><path d="M342.273 460.8H215.041c-16.962 0-30.72-13.758-30.72-30.72V71.68c0-16.962 13.758-30.72 30.72-30.72h591.872c16.962 0 30.72 13.758 30.72 30.72v358.4c0 16.962-13.758 30.72-30.72 30.72h-78.08c-11.311 0-20.48 9.169-20.48 20.48s9.169 20.48 20.48 20.48h78.08c39.583 0 71.68-32.097 71.68-71.68V71.68c0-39.583-32.097-71.68-71.68-71.68H215.041c-39.583 0-71.68 32.097-71.68 71.68v358.4c0 39.583 32.097 71.68 71.68 71.68h127.232c11.311 0 20.48-9.169 20.48-20.48s-9.169-20.48-20.48-20.48z"/><path d="M265.216 143.36h71.424c11.311 0 20.48-9.169 20.48-20.48s-9.169-20.48-20.48-20.48h-71.424c-11.311 0-20.48 9.169-20.48 20.48s9.169 20.48 20.48 20.48zm0 256.305h69.376c11.311 0 20.48-9.169 20.48-20.48s-9.169-20.48-20.48-20.48h-69.376c-11.311 0-20.48 9.169-20.48 20.48s9.169 20.48 20.48 20.48zM685.185 143.36h71.424c11.311 0 20.48-9.169 20.48-20.48s-9.169-20.48-20.48-20.48h-71.424c-11.311 0-20.48 9.169-20.48 20.48s9.169 20.48 20.48 20.48zm0 256h71.424c11.311 0 20.48-9.169 20.48-20.48s-9.169-20.48-20.48-20.48h-71.424c-11.311 0-20.48 9.169-20.48 20.48s9.169 20.48 20.48 20.48zm-25.398 603.136V874.189a40.952 40.952 0 0117.858-33.817l36.384-24.853a81.929 81.929 0 0035.706-67.64v-79.596c0-11.311-9.169-20.48-20.48-20.48s-20.48 9.169-20.48 20.48v79.596a40.964 40.964 0 01-17.853 33.82l-36.379 24.85a81.908 81.908 0 00-35.716 67.64v128.307c0 11.311 9.169 20.48 20.48 20.48s20.48-9.169 20.48-20.48zM331.605 654.02v91.423c0 28.832 15.164 55.54 39.919 70.328l43.023 25.685a40.98 40.98 0 0119.96 35.172v125.87c0 11.311 9.169 20.48 20.48 20.48s20.48-9.169 20.48-20.48v-125.87a81.942 81.942 0 00-39.919-70.338l-43.023-25.685a40.963 40.963 0 01-19.96-35.162V654.02c0-11.311-9.169-20.48-20.48-20.48s-20.48 9.169-20.48 20.48z"/><path d="M749.637 709.06V495.382c0-36.757-29.803-66.56-66.56-66.56h-2.222c-36.757 0-66.56 29.803-66.56 66.56V622.02c0 11.311 9.169 20.48 20.48 20.48s20.48-9.169 20.48-20.48V495.382c0-14.136 11.464-25.6 25.6-25.6h2.222c14.136 0 25.6 11.464 25.6 25.6V709.06c0 11.311 9.169 20.48 20.48 20.48s20.48-9.169 20.48-20.48z"/><path d="M655.258 575.898V449.26c0-36.757-29.803-66.56-66.56-66.56h-2.222c-36.757 0-66.56 29.803-66.56 66.56v165.55c0 11.311 9.169 20.48 20.48 20.48s20.48-9.169 20.48-20.48V449.26c0-14.136 11.464-25.6 25.6-25.6h2.222c14.136 0 25.6 11.464 25.6 25.6v126.638c0 11.311 9.169 20.48 20.48 20.48s20.48-9.169 20.48-20.48z"/><path d="M561.445 616.815V403.137c0-36.757-29.803-66.56-66.56-66.56h-2.222c-36.757 0-66.56 29.803-66.56 66.56v163.502c0 11.311 9.169 20.48 20.48 20.48s20.48-9.169 20.48-20.48V403.137c0-14.136 11.464-25.6 25.6-25.6h2.222c14.136 0 25.6 11.464 25.6 25.6v213.678c0 11.311 9.169 20.48 20.48 20.48s20.48-9.169 20.48-20.48z"/><path d="M467.013 612.762V449.26c0-36.757-29.803-66.56-66.56-66.56h-2.222c-36.757 0-66.56 29.803-66.56 66.56v213.678c0 11.311 9.169 20.48 20.48 20.48s20.48-9.169 20.48-20.48V449.26c0-14.136 11.464-25.6 25.6-25.6h2.222c14.136 0 25.6 11.464 25.6 25.6v163.502c0 11.311 9.169 20.48 20.48 20.48s20.48-9.169 20.48-20.48zm105.403-365.466c0-33.93-27.51-61.44-61.44-61.44s-61.44 27.51-61.44 61.44c0 33.93 27.51 61.44 61.44 61.44s61.44-27.51 61.44-61.44zm40.96 0c0 56.551-45.849 102.4-102.4 102.4s-102.4-45.849-102.4-102.4c0-56.551 45.849-102.4 102.4-102.4s102.4 45.849 102.4 102.4z"/></svg>