<svg viewBox="0 0 1024 1066.744" xmlns="http://www.w3.org/2000/svg"><path d="M534.756 785.92h-143.36v-68.267h143.36c.492.03 1.068.05 1.647.05 7.728 0 14.724-3.133 19.79-8.196 5.062-5.065 8.194-12.06 8.194-19.79 0-.578-.018-1.154-.052-1.725l.004.078c.03-.492.048-1.068.048-1.647 0-7.728-3.132-14.724-8.195-19.79-5.065-5.062-12.06-8.194-19.79-8.194-.578 0-1.154.017-1.725.05l.078-.003h-45.51c-.31.004-.675.006-1.04.006-26.735 0-50.938-10.838-68.457-28.36-17.523-17.517-28.36-41.72-28.36-68.455 0-.366.002-.73.006-1.095v.056c-.004-.31-.006-.675-.006-1.04 0-26.735 10.838-50.938 28.36-68.457 17.517-17.522 41.72-28.36 68.455-28.36.366 0 .73.003 1.095.007h143.304v68.267h-143.36c-.492-.03-1.068-.05-1.647-.05-7.728 0-14.724 3.133-19.79 8.196-5.062 5.065-8.194 12.06-8.194 19.79 0 .578.018 1.154.052 1.725l-.004-.078c-.03.492-.048 1.068-.048 1.647 0 7.728 3.132 14.724 8.195 19.79 5.065 5.062 12.06 8.194 19.79 8.194.578 0 1.154-.017 1.725-.05l-.078.003h45.51c.31-.004.675-.006 1.04-.006 26.735 0 50.938 10.838 68.457 28.36 17.523 17.517 28.36 41.72 28.36 68.455 0 .366-.002.73-.006 1.095v-.056c.004.31.006.675.006 1.04 0 26.735-10.838 50.938-28.36 68.457-17.517 17.522-41.72 28.36-68.455 28.36-.366 0-.73-.003-1.095-.007h.056zm11.377-263.965h-68.267V367.217h68.267zm0 350.436h-68.267V717.654h68.267zM0 21.334h1024v500.622H737.28V308.053H286.72v213.902H0zM955.733 89.6H68.266v364.09h150.187V239.786h587.093V453.69h150.187zM805.547 308.053H218.454v-68.267h587.093zm-587.094-68.267h587.093v805.547H218.453zm518.827 68.267H286.72v669.013h450.56zm120.604 0h-691.77v-68.267h691.77z"/></svg>